<svg viewBox="0 0 16 16" fill="none" xmlns="http://www.w3.org/2000/svg">
<path d="M1.33073 3.99505L1.33073 1.33203L3.32799 1.33203L3.32799 3.99505L4.6595 3.99505L4.6595 6.66719L6.00013 6.66719L6.00013 9.33021L7.33164 9.33021L7.33164 12.0023L8.66315 12.0023L8.66315 9.33021L9.99466 9.33021L9.99466 6.66719L11.3353 6.66719L11.3353 3.99505L12.6668 3.99505L12.6668 1.33203L14.6641 1.33203L14.6641 3.99505L13.3326 3.99505L13.3326 6.66719L12.001 6.66719L12.001 9.33021L10.6695 9.33021L10.6695 12.0023L9.32891 12.0023L9.3289 14.6654L6.66589 14.6654L6.66589 12.0023L5.32526 12.0023L5.32526 9.33021L3.99375 9.33021L3.99375 6.66719L2.66224 6.66719L2.66224 3.99505L1.33073 3.99505Z" fill="black"/>
</svg>
