<svg width="760" height="132" viewBox="0 0 760 132" fill="none" xmlns="http://www.w3.org/2000/svg">
<g>
<path d="M64.9927 58.1905V79.8089H95.44C95.3087 85.161 93.9164 89.9622 91.2368 94.1862C88.5572 98.4102 84.8531 101.742 80.1244 104.156C75.3958 106.596 69.9841 107.803 63.8631 107.803C55.5354 107.803 48.8365 105.782 43.7926 101.742C38.7487 97.7018 35.0971 92.2972 32.8642 85.5021C30.6312 78.7332 29.5016 70.8624 29.5016 61.916C29.5016 52.9695 30.6837 45.4398 33.0481 38.5922C35.4124 31.7446 39.1165 26.3138 44.1604 22.2735C45.4739 21.224 46.8662 20.3058 48.3636 19.5449H11.1649C9.87764 21.5651 8.72174 23.664 7.64466 25.894C2.54822 36.4671 0 48.4832 0 61.916C0 75.3488 2.3906 87.3386 7.17179 97.9117C11.9793 108.485 18.9409 116.749 28.1092 122.731C37.2513 128.686 48.0484 131.677 60.5005 131.677C70.0892 131.677 78.1542 129.92 84.6955 126.351C91.2368 122.81 96.4383 117.746 100.3 111.161H100.668L104.608 128.686H125.152V58.1905H64.9927ZM116.64 19.5449H79.9931C81.4642 20.2795 82.7777 21.1716 83.9599 22.1685C88.636 26.1564 91.7622 31.561 93.391 38.4086H123.076C121.999 31.561 119.871 25.2644 116.64 19.5449Z" fill="currentColor"/>
<path d="M241.503 95.7097C240.478 98.9892 238.666 102.4 236.091 105.994C234.541 108.198 232.571 110.192 230.18 112.002H260.444C263.36 107.122 265.619 101.691 267.248 95.7097H241.503ZM268.798 67.4273C268.798 53.8896 266.381 42.1096 261.6 32.0875C256.792 22.0654 249.673 14.2995 240.216 8.81621C230.784 3.3329 219.541 0.578125 206.484 0.578125C193.428 0.578125 181.79 3.46408 171.992 9.20975C162.219 14.9554 154.706 23.0886 149.478 33.6354C144.224 44.1823 141.623 56.3033 141.623 69.9984C141.623 83.6936 144.198 95.6047 149.347 106.125C150.345 108.172 151.422 110.139 152.604 112.002H183.787C178.612 108.146 174.671 103.161 171.992 97.1264C169.233 90.9085 167.788 84.1921 167.657 76.951H268.535C268.719 75.403 268.798 72.2285 268.798 67.4273ZM167.736 57.1428C168.104 50.8462 169.706 45.1005 172.517 39.932C175.774 33.924 180.319 29.3065 186.151 26.0532C191.983 22.8 198.525 21.1471 205.723 21.1471C212.921 21.1471 219.357 22.695 225.031 25.7909C230.706 28.8605 234.988 33.1632 237.904 38.6465C240.82 44.1298 242.291 50.2952 242.291 57.1428H167.736Z" fill="currentColor"/>
<path d="M285.007 3.85668V132H310.253V3.85668H285.007ZM385.543 11.1765C377.399 3.7255 366.891 0 354.019 0C343.537 0 334.737 1.88899 327.617 5.64073C320.498 9.4187 314.876 14.2986 310.752 20.3066H301.242V54.4921H310.253C310.253 47.9855 311.697 42.2399 314.613 37.2813C317.529 32.2965 321.706 28.4135 327.118 25.58C332.504 22.7466 338.73 21.3298 345.77 21.3298C354.86 21.3298 361.559 23.9797 365.867 29.3056C370.149 34.6052 372.303 41.8201 372.303 50.8977V132H397.785V44.2076C397.785 29.6466 393.713 18.6275 385.543 11.1765Z" fill="currentColor"/>
<path d="M540.407 59.2924C540.407 45.7546 537.99 33.9747 533.183 23.9526C532.447 22.4309 531.659 20.9617 530.818 19.5449H499.688C503.891 22.3784 507.149 26.0514 509.513 30.5115C512.429 35.9949 513.9 42.1603 513.9 49.0079H439.345C439.713 42.7113 441.315 36.9656 444.126 31.7971C446.885 26.7073 450.563 22.6408 455.16 19.5449H424.45C423.241 21.4339 422.112 23.4278 421.087 25.5005C415.833 36.0473 413.232 48.1683 413.232 61.8635C413.232 75.5587 415.807 87.4698 420.956 97.9904C426.105 108.537 433.513 116.775 443.207 122.678C452.901 128.608 464.538 131.546 478.094 131.546C494.565 131.546 507.911 127.558 518.13 119.609C528.349 111.633 535.258 100.955 538.857 87.5747H513.112C512.088 90.8542 510.275 94.2649 507.7 97.8592C505.126 101.48 501.448 104.549 496.641 107.121C491.833 109.692 485.738 110.977 478.356 110.977C469.95 110.977 462.778 108.983 456.867 104.943C450.93 100.929 446.517 95.6029 443.601 88.9915C440.843 82.7735 439.398 76.0571 439.266 68.816H540.144C540.328 67.2681 540.407 64.0936 540.407 59.2924Z" fill="currentColor"/>
<path d="M556.615 1.09584L556.615 134H581.861V1.09584H556.615ZM617.641 -2C609.235 -2 602.142 0.439945 596.388 5.31983C590.635 10.226 585.959 17.126 582.36 26.02H563.84L581.861 64.3245C581.861 56.1126 583.516 48.7928 586.879 42.365C590.215 35.9109 594.891 30.8999 600.907 27.3056C606.897 23.7112 613.596 21.9009 620.977 21.9009C623.552 22.0846 626.468 22.4257 629.726 22.9504V-1.23916C626.126 -1.73764 622.107 -2 617.641 -2Z" fill="currentColor"/>
<path d="M752.014 33.4246C746.707 22.9565 739.115 14.7708 729.238 8.86775C719.36 2.96466 707.827 0 694.613 0C681.399 0 669.341 2.91219 659.464 8.73657C649.612 14.5609 641.994 22.799 636.687 33.4246C631.354 44.0502 628.701 56.1449 628.701 69.6827C628.701 83.2204 631.354 95.2889 636.687 105.915C637.738 108.04 638.894 110.06 640.155 112.001H672.415C669.63 110.06 667.161 107.646 665.007 104.76C658.308 95.7612 654.971 84.06 654.971 69.6827C654.971 60.2377 656.416 51.8947 659.332 44.6011C662.248 37.3075 666.688 31.5881 672.599 27.3903C678.536 23.1926 685.865 21.0675 694.613 21.0675C707.302 21.0675 717.048 25.58 723.826 34.579C730.604 43.5779 733.993 55.2004 733.993 69.4203C733.993 78.839 732.495 87.2345 729.5 94.6068C726.479 101.979 722.066 107.777 716.234 111.975C716.208 111.975 716.208 112.001 716.181 112.001H748.441C749.728 110.034 750.911 107.961 752.014 105.783C757.347 95.2627 760 83.1417 760 69.4203C760 55.6989 757.347 43.8665 752.014 33.4246Z" fill="currentColor"/>
<path d="M80.0191 0H48.3896V19.5458H80.0191V0Z" fill="currentColor"/>
<path d="M230.18 112.029H183.787V131.575H230.18V112.029Z" fill="currentColor"/>
<path d="M716.234 112.029H672.415V131.575H716.234V112.029Z" fill="currentColor"/>
<path d="M499.687 0H455.159V19.5458H499.687V0Z" fill="currentColor"/>
</g>
<defs>
<clipPath id="clip0_2078_25586">
<rect width="760" height="132" fill="currentColor"/>
</clipPath>
</defs>
</svg>
